HIERARCHY
ROOT SpineBase
{
  OFFSET 0.000000 0.000000 0.000000
  CHANNELS 6 Xposition Yposition Zposition Zrotation Xrotation Yrotation
  JOINT SpineMid
  {
    OFFSET -0.000000 30.371255 0.000000
    CHANNELS 3 Zrotation Xrotation Yrotation
    JOINT SpineShoulder
    {
      OFFSET -0.052388 22.524103 -1.011900
      CHANNELS 3 Zrotation Xrotation Yrotation
      JOINT Neck
      {
        OFFSET -0.072529 7.427894 -0.681573
        CHANNELS 3 Zrotation Xrotation Yrotation
        JOINT Head
        {
          OFFSET -1.114743 13.482704 -1.311881
          CHANNELS 3 Zrotation Xrotation Yrotation
          End Site
          {
            OFFSET 0 0 0
          }
        }
      }
      JOINT ShoulderLeft
      {
        OFFSET -16.143677 -4.661627 5.979010
        CHANNELS 3 Zrotation Xrotation Yrotation
        JOINT ElbowLeft
        {
          OFFSET -1.723942 -25.730124 -1.369836
          CHANNELS 3 Zrotation Xrotation Yrotation
          JOINT WristLeft
          {
            OFFSET -0.768576 -23.926525 -5.434156
            CHANNELS 3 Zrotation Xrotation Yrotation
            JOINT HandLeft
            {
              OFFSET 0.953222 -5.381362 -1.610946
              CHANNELS 3 Zrotation Xrotation Yrotation
              JOINT HandTipLeft
              {
                OFFSET -0.655779 -5.792525 -0.883698
                CHANNELS 3 Zrotation Xrotation Yrotation
                End Site
                {
                  OFFSET 0 0 0
                }
              }
              JOINT ThumbLeft
              {
                OFFSET -4.783089 1.388482 -1.263407
                CHANNELS 3 Zrotation Xrotation Yrotation
                End Site
                {
                  OFFSET 0 0 0
                }
              }
            }
          }
        }
      }
      JOINT ShoulderRight
      {
        OFFSET 16.031848 -3.418167 -5.699047
        CHANNELS 3 Zrotation Xrotation Yrotation
        JOINT ElbowRight
        {
          OFFSET 5.263687 -25.060009 -0.263520
          CHANNELS 3 Zrotation Xrotation Yrotation
          JOINT WristRight
          {
            OFFSET 0.026053 -22.082353 -6.144302
            CHANNELS 3 Zrotation Xrotation Yrotation
            JOINT HandRight
            {
              OFFSET -2.412390 -5.491362 -1.301872
              CHANNELS 3 Zrotation Xrotation Yrotation
              JOINT HandTipRight
              {
                OFFSET -1.132702 -7.173810 -2.937361
                CHANNELS 3 Zrotation Xrotation Yrotation
                End Site
                {
                  OFFSET 0 0 0
                }
              }
              JOINT ThumbRight
              {
                OFFSET -3.302155 1.129159 1.065434
                CHANNELS 3 Zrotation Xrotation Yrotation
                End Site
                {
                  OFFSET 0 0 0
                }
              }
            }
          }
        }
      }
    }
  }
  JOINT HipLeft
  {
    OFFSET -7.557817 0.065696 -1.659409
    CHANNELS 3 Zrotation Xrotation Yrotation
    JOINT KneeLeft
    {
      OFFSET 0.485526 -35.719616 4.026884
      CHANNELS 3 Zrotation Xrotation Yrotation
      JOINT AnkleLeft
      {
        OFFSET 1.356942 -32.109825 7.306122
        CHANNELS 3 Zrotation Xrotation Yrotation
        JOINT FootLeft
        {
          OFFSET 11.756675 -2.884628 -8.663551
          CHANNELS 3 Zrotation Xrotation Yrotation
          End Site
          {
            OFFSET 0 0 0
          }
        }
      }
    }
  }
  JOINT HipRight
  {
    OFFSET 6.031858 0.919876 -5.984974
    CHANNELS 3 Zrotation Xrotation Yrotation
    JOINT KneeRight
    {
      OFFSET 2.452121 -36.352155 0.716747
      CHANNELS 3 Zrotation Xrotation Yrotation
      JOINT AnkleRight
      {
        OFFSET 3.894195 -31.345221 5.742537
        CHANNELS 3 Zrotation Xrotation Yrotation
        JOINT FootRight
        {
          OFFSET -6.546219 -5.538027 1.273950
          CHANNELS 3 Zrotation Xrotation Yrotation
          End Site
          {
            OFFSET 0 0 0
          }
        }
      }
    }
  }
}
MOTION
Frames: 9
Frame Time: 0.033333
86.536561 73.388654 390.249451 0.000000 0.000000 17.656162 -0.000000 0.000000 -17.656162 -0.000000 0.000000 0.000000 -0.000000 0.000000 0.000000 0.000000 0.000000 0.000000 -0.000000 0.000000 0.000000 -0.000000 0.000000 0.000000 -0.000000 0.000000 0.000000 -0.000000 0.000000 0.000000 0.000000 0.000000 0.000000 0.000000 0.000000 0.000000 -0.000000 0.000000 0.000000 -0.000000 0.000000 0.000000 -0.000000 0.000000 0.000000 -0.000000 0.000000 0.000000 0.000000 0.000000 0.000000 0.000000 0.000000 0.000000 -0.000000 0.000000 -17.656162 -0.000000 0.000000 0.000000 -0.000000 0.000000 0.000000 0.000000 0.000000 0.000000 -0.000000 0.000000 -17.656162 -0.000000 0.000000 0.000000 -0.000000 0.000000 0.000000 0.000000 0.000000 0.000000
86.656131 73.368788 390.319756 -0.204217 -0.439189 19.429551 0.338687 0.346241 -19.431357 -0.000000 0.000000 0.000000 1.391039 -0.136311 0.125600 0.000000 0.000000 0.000000 -0.129639 -0.871421 0.064324 0.130632 0.871273 -0.066303 -1.265202 -1.908190 0.019792 3.399647 4.083294 -0.744240 0.000000 0.000000 0.000000 0.000000 0.000000 0.000000 -0.000000 0.000000 0.000000 0.023403 -1.035909 -0.007541 2.150204 0.265477 -0.195511 -3.014261 -4.734748 1.405809 0.000000 0.000000 0.000000 0.000000 0.000000 0.000000 0.338687 0.346241 -19.431357 -0.000000 0.000000 0.000000 -7.185786 -0.909486 24.401553 0.000000 0.000000 0.000000 0.338687 0.346241 -19.431357 -0.000000 0.000000 0.000000 3.021949 5.520497 -6.238765 0.000000 0.000000 0.000000
86.729701 73.342405 390.420289 -0.374042 -0.842220 21.101821 -0.153015 0.089752 -21.129623 0.076009 -0.180813 -0.027821 3.168064 0.766097 0.250320 0.000000 0.000000 0.000000 0.257686 -0.702987 0.174874 -1.170098 1.675196 0.228536 -1.157817 -3.139017 -0.188529 6.418373 6.948871 -1.625774 0.000000 0.000000 0.000000 0.000000 0.000000 0.000000 1.306009 2.077137 0.244726 -0.899998 -2.997073 -0.215350 3.784127 0.688665 -0.450367 -5.154417 -9.096828 2.608804 0.000000 0.000000 0.000000 0.000000 0.000000 0.000000 0.652218 0.651048 -21.108276 0.750335 0.268161 0.180353 -14.075529 -4.947000 47.458482 0.000000 0.000000 0.000000 0.652218 0.651048 -21.108276 -0.000000 0.000000 0.000000 6.255090 9.599053 -11.378874 0.000000 0.000000 0.000000
86.757271 73.309506 390.551048 -0.509604 -1.209170 22.678178 -0.167519 0.152823 -22.715844 0.112213 -0.234778 -0.036601 4.520096 1.088506 0.334421 0.000000 0.000000 0.000000 0.352858 -1.110044 0.242692 -1.677300 2.280439 0.342492 -1.887053 -3.638973 -0.105656 9.090539 8.709269 -2.510913 0.000000 0.000000 0.000000 0.000000 0.000000 0.000000 1.824856 2.988474 0.342446 -1.472985 -4.252622 -0.294856 5.024290 1.210573 -0.752604 -6.572968 -12.864662 3.590775 0.000000 0.000000 0.000000 0.000000 0.000000 0.000000 0.592823 1.939898 -22.751678 1.845536 -0.379784 0.362240 -17.645041 -9.088040 62.574822 0.000000 0.000000 0.000000 0.936508 0.919118 -22.691068 0.694747 -0.709436 0.043362 8.576474 12.852523 -15.157814 0.000000 0.000000 0.000000
86.738840 73.270090 390.712034 -0.611041 -1.540147 24.163791 -0.140591 0.223034 -24.208536 0.147001 -0.265251 -0.041677 5.714791 1.371013 0.399868 0.000000 0.000000 0.000000 0.426240 -1.552033 0.298599 -2.130607 2.726657 0.448192 -2.724112 -3.501345 0.118133 11.430764 9.462289 -3.310062 0.000000 0.000000 0.000000 0.000000 0.000000 0.000000 2.255729 3.815995 0.428469 -2.125074 -5.338929 -0.361101 5.948796 1.798174 -1.091607 -7.384534 -15.904426 4.347564 0.000000 0.000000 0.000000 0.000000 0.000000 0.000000 0.905406 2.428538 -24.248882 2.305244 -0.440097 0.473372 -19.480799 -12.140432 70.821802 0.000000 0.000000 0.000000 1.188159 1.154904 -24.183979 0.834820 -0.901561 0.047393 10.883850 14.188337 -17.086695 0.000000 0.000000 0.000000
86.674409 73.224158 390.903246 -0.678502 -1.835290 25.563683 -0.072387 0.297211 -25.612726 0.180290 -0.272687 -0.042931 6.750656 1.614189 0.452127 0.000000 0.000000 0.000000 0.478190 -2.027684 0.343432 -2.528029 3.010520 0.540487 -3.679509 -2.765893 0.501940 13.445479 9.284970 -3.967027 0.000000 0.000000 0.000000 0.000000 0.000000 0.000000 2.599370 4.560411 0.505685 -2.852599 -6.253782 -0.417271 6.603023 2.438369 -1.458978 -7.667388 -18.141688 4.879570 0.000000 0.000000 0.000000 0.000000 0.000000 0.000000 1.263273 2.832932 -25.654915 2.686193 -0.466158 0.577982 -20.620879 -14.276624 74.614435 0.000000 0.000000 0.000000 1.503658 2.176463 -25.547065 1.190457 -1.849710 0.012811 12.532349 14.228676 -17.085683 0.000000 0.000000 0.000000
86.591514 73.157510 391.158869 -0.704376 -2.176619 27.072212 0.103233 0.426022 -27.121682 0.237412 -0.264009 -0.036434 7.530977 1.684242 0.484581 0.000000 0.000000 0.000000 0.524431 -2.819391 0.388862 -3.178611 3.440641 0.687044 -4.109444 -1.379934 0.903076 13.320327 7.592474 -3.877387 0.000000 0.000000 0.000000 0.000000 0.000000 0.000000 2.863105 5.243376 0.567628 -3.674327 -7.247737 -0.482868 7.118898 4.101707 -2.269427 -7.579759 -19.657670 5.409459 0.000000 0.000000 0.000000 0.000000 0.000000 0.000000 1.708370 3.259066 -27.167256 3.113008 -0.486248 0.705881 -21.579540 -15.477736 72.387247 0.000000 0.000000 0.000000 2.081134 2.555302 -27.055037 1.020079 -2.323426 -0.014884 13.886819 12.169626 -13.596688 0.000000 0.000000 0.000000
86.439387 73.086210 391.444023 -0.685380 -2.452650 28.452877 0.327174 0.530713 -28.499538 0.288749 -0.220168 -0.024980 8.095740 1.869413 0.516851 0.000000 0.000000 0.000000 0.431002 -3.472637 0.415349 -3.267348 3.540788 0.687227 -5.786779 0.581602 1.831291 15.477517 5.672012 -4.444748 0.000000 0.000000 0.000000 0.000000 0.000000 0.000000 2.992662 5.722107 0.608472 -4.688855 -7.646473 -0.482983 7.235692 5.030067 -2.771091 -7.418232 -18.243378 5.324582 0.000000 0.000000 0.000000 0.000000 0.000000 0.000000 2.213720 3.576804 -28.543284 3.342476 -0.538827 0.802133 -22.012208 -15.183349 65.818092 0.000000 0.000000 0.000000 2.730588 2.845995 -28.436808 0.646244 -2.760954 -0.057057 14.656879 8.685663 -7.738530 0.000000 0.000000 0.000000
86.235967 73.023891 391.722227 -0.673717 -2.646608 29.556384 0.504005 0.588696 -29.601455 0.305953 -0.163795 -0.017470 8.760328 2.254094 0.560234 0.000000 0.000000 0.000000 0.512930 -3.863343 0.423043 -3.065717 3.604719 0.576458 -8.598584 1.664191 2.987870 18.201161 3.893895 -5.078818 0.000000 0.000000 0.000000 0.000000 0.000000 0.000000 3.058357 6.515464 0.728190 -5.680154 -8.268395 -0.574553 6.903901 6.205269 -3.264620 -5.361247 -18.559398 5.200855 0.000000 0.000000 0.000000 0.000000 0.000000 0.000000 2.685777 3.699834 -29.636709 3.432794 -0.443240 0.868600 -22.722950 -16.127892 67.333520 0.000000 0.000000 0.000000 3.450509 3.024041 -29.542216 0.107297 -3.246871 -0.122466 14.574285 3.923147 0.104247 0.000000 0.000000 0.000000
